<?xml version="1.0" encoding="UTF-8" standalone="no"?>
<!-- Created with Inkscape (http://www.inkscape.org/) -->
<svg id="svg4057" xmlns:rdf="http://www.w3.org/1999/02/22-rdf-syntax-ns#" xmlns="http://www.w3.org/2000/svg" height="562.07" width="562.07" version="1.1" xmlns:cc="http://creativecommons.org/ns#" xmlns:dc="http://purl.org/dc/elements/1.1/">
 <metadata id="metadata4062">
  <rdf:RDF>
   <cc:Work rdf:about="">
    <dc:format>image/svg+xml</dc:format>
    <dc:type rdf:resource="http://purl.org/dc/dcmitype/StillImage"/>
    <dc:title/>
   </cc:Work>
  </rdf:RDF>
 </metadata>
 <g id="layer1" transform="translate(-67.535763,-222.75498)">
  <g id="g3092">
   <path id="path6671" style="baseline-shift:baseline;block-progression:tb;color:#000000;direction:ltr;text-indent:0;text-align:start;enable-background:accumulate;text-transform:none;" d="m346.07,222.75c-88.024,0-175.07,15.095-228.92,47.117-1.097,0.63962-2.0239,1.5666-2.6638,2.6637-31.856,56.916-46.95,145.73-46.95,233.75,0,88.024,15.095,175.07,47.117,228.92,0.6398,1.0971,1.5668,2.0241,2.6638,2.6643,56.916,31.857,145.56,46.95,233.59,46.95,88.024,0,175.24-15.095,229.09-47.117,1.097-0.63902,2.024-1.5666,2.6639-2.6637,31.856-56.916,46.95-145.56,46.95-233.59,0-88.025-15.095-175.24-47.117-229.09-0.63986-1.0971-1.5669-2.0246-2.6638-2.6643-56.916-31.857-145.73-46.95-233.75-46.95z" fill-rule="nonzero" fill="#292929"/>
   <path id="path6677" stroke-linejoin="miter" d="m450.43,468.37c30.872,2.9707,57.431,34.16,65.722,62.964,10.883,34.919,8.2868,77.451-20.661,102.1-11.146,9.8766-30.736,17.204-45.056,10.064-8.6573-4.0853-20.57-8.7896-25.744-17.188-3.5341-5.7376-1.9613-14.321-1.7958-21.182,0.0125-5.0983,7.6459-16.694,12.108-16.581,52.648,1.3273,11.203,6.44,1.325,15.629-4.2684,13.307,8.0471,26.627,21.513,22.045,20.792-4.7548,41.542-23.358,40.047-46.139-3.5157-14.424-11.856-27.865-21.424-39.166-27.096-26.409-72.092-18.242-101.93,1.721-14.372,9.642-26.899,18.847-29.943,36.305-4.7114,10.694-0.17876,64.549-14.605,55.443-5.9556-12.746-18.853-57.012-16.458-70.508,8.9653-36.182,42.06-59.586,74.186-74.235,20.498-9.5098,39.976-21.317,62.716-21.271z" stroke="#1be75c" stroke-linecap="butt" stroke-width="1.32557786px" fill="#1be75c"/>
   <path id="path6679" stroke-linejoin="miter" d="m444.78,591.46c14.055-11.387,1.0039-20.588-13.704-17.216-15.239,0.001-30.169,9.558-30.208,26.985,2.3189,15.704-3.4891,32.328,6.0933,46.207,24.197,38.489,83.128,48.695,119.03,20.942,20.707-8.4294,30.245-31.012,37.967-50.452,3.6984-10.76,3.3699-25.675,3.316-34.704,14.505,45.261-3.0065,100.81-48.291,118.09-47.581,19.982-104.97,16.423-148.53-11.814-15.567-10.408-29.905-23.93-38.423-40.743-11.999-41.724,10.814-87.041,45.466-110.58,24.395-17.381,58.646-21.9,85.149-6.5274,18.231,3.0752,39.05,19.714,38.751,38.384,0.27648,21.601-17.383,51.426-38.193,60.596-14.229,5.3422-26.516-12.119-30.401-24.865-0.16473-9.1064,8.0063-32.092,11.978-14.304z" stroke="#13d65d" stroke-linecap="butt" stroke-width="1.32557786px" fill="#13d65d"/>
   <path id="path6681" d="m414.09,476.5c24.074-10.674,57.185-3.3758,76.109,14.742,29.971,27.668,38.398,73.611,24.93,112.94-8.0233,23.428-29.881,37.673-52.709,36.849-15.641-0.14825-36.406-5.6114-40.4-23.08-1.2622-12.444,6.7026-29.658,21.548-25.846,17.538-0.27425,6.3246-19.595-3.6342-19.208-12.804-3.9704-33.397,2.8909-37.756,17.334-4.1971,15.72-7.9427,33.014-0.59017,48.549,15.166,33.346,55.381,49.098,90.297,44.277,21.689-2.9373,39.905-14.149,54.58-29.691,25.226-28.798,26.877-73.855,14.853-108.65-8.4295-25.523-23.75-48.626-43.779-66.476-39.151-28.092-78.577-26.911-103.45-1.7403z" fill="#159c41"/>
  </g>
 </g>
</svg>
