<?xml version="1.0" encoding="UTF-8" standalone="no"?>
<!-- Created with Inkscape (http://www.inkscape.org/) -->
<svg id="svg2" xmlns:rdf="http://www.w3.org/1999/02/22-rdf-syntax-ns#" xmlns="http://www.w3.org/2000/svg" height="93.5" width="466.7" version="1.1" xmlns:cc="http://creativecommons.org/ns#" xmlns:xlink="http://www.w3.org/1999/xlink" xmlns:dc="http://purl.org/dc/elements/1.1/">
 <defs id="defs4"></defs>
 <metadata id="metadata7">
  <rdf:RDF>
   <cc:Work rdf:about="">
    <dc:format>image/svg+xml</dc:format>
    <dc:type rdf:resource="http://purl.org/dc/dcmitype/StillImage"/>
    <dc:title/>
   </cc:Work>
  </rdf:RDF>
 </metadata>
 <g id="g3927">
  <text id="text3812" style="letter-spacing:0px;word-spacing:0px;" font-family="Sawasdee" xml:space="preserve" font-size="40px" line-height="125%" y="245.52385" font-stretch="normal" font-variant="normal" font-style="normal" x="383.14597" font-weight="normal" fill="#000000"><tspan id="tspan3814" y="245.52385" x="383.14597"/></text>
  <text id="text3899" style="letter-spacing:0px;word-spacing:0px;" font-family="Sawasdee" xml:space="preserve" font-size="40px" line-height="125%" y="241.98833" font-stretch="normal" font-variant="normal" font-style="normal" x="258.39212" font-weight="normal" fill="#000000"><tspan id="tspan3901" y="241.98833" x="258.39212"/></text>
  <text id="text3903" style="letter-spacing:0px;word-spacing:0px;" font-family="Sawasdee" xml:space="preserve" font-size="40px" line-height="125%" y="275.22165" font-stretch="normal" font-variant="normal" font-style="normal" x="417.53592" font-weight="normal" fill="#000000"><tspan id="tspan3905" y="275.22165" x="417.53592"/></text>
  <text id="text4031" style="letter-spacing:0px;word-spacing:0px;" font-family="Sawasdee" xml:space="preserve" font-size="40px" line-height="125%" y="500.79309" font-stretch="normal" font-variant="normal" font-style="normal" x="171.6788" font-weight="normal" fill="#000000"><tspan id="tspan4033" y="500.79309" x="171.6788"/></text>
  <text id="text4057" style="letter-spacing:0px;word-spacing:0px;" font-family="Sawasdee" xml:space="preserve" font-size="40px" line-height="125%" y="601.0976" font-stretch="normal" font-variant="normal" font-style="normal" x="204.95505" font-weight="normal" fill="#000000"><tspan id="tspan4059" y="601.0976" x="204.95505"/></text>
  <text id="text4073" style="letter-spacing:0px;word-spacing:0px;" font-family="Sawasdee" xml:space="preserve" font-size="40px" line-height="125%" y="109.65835" font-stretch="normal" font-variant="normal" font-style="normal" x="-138.69882" font-weight="normal" fill="#000000"><tspan id="tspan4075" y="109.65835" x="-138.69882"/></text>
  <text id="text4077" style="letter-spacing:0px;word-spacing:0px;" font-family="Sawasdee" xml:space="preserve" font-size="40px" line-height="125%" y="90.56646" font-stretch="normal" font-variant="normal" font-style="normal" x="238.18909" font-weight="normal" fill="#000000"><tspan id="tspan4079" y="90.56646" x="238.18909"/></text>
  <text id="text4169" style="letter-spacing:0px;word-spacing:0px;" font-family="Sawasdee" xml:space="preserve" font-size="40px" line-height="125%" y="252.79308" font-stretch="normal" font-variant="normal" font-style="normal" x="1199.6788" font-weight="normal" fill="#000000"><tspan id="tspan4171" y="252.79308" x="1199.6788"/></text>
  <flowRoot id="flowRoot6170" style="letter-spacing:0px;word-spacing:0px;" font-family="Sawasdee" xml:space="preserve" transform="translate(-260.32119,-83.5691)" line-height="125%" font-stretch="normal" font-size="40px" font-variant="normal" font-style="normal" font-weight="normal" fill="#000000"><flowRegion id="flowRegion6172"><rect id="rect6174" y="-368.92" width="1028.1" height="257.39" x="1260.1"/></flowRegion><flowPara id="flowPara6176"/></flowRoot>
  <path id="path5974" style="text-align:start;" fill="#159c41" d="m157.1,69.765c-3.1966,0.39076-7.3113,0.63578-9.3455-2.4016-1.0575-3.2838-1.0556-6.8103-2.2503-10.065-1.9815-7.8457-4.0435-15.67-6.1588-23.481-2.0967,6.9152-3.4728,14.019-5.3181,21-2.3626,4.4765-0.75532,10.247-4.0477,14.327-2.7547,2.6107-7.4906,0.66676-8.78-2.5761-2.279-4.72-2.7431-10.037-4.4417-14.959-2.6656-9.4497-5.571-18.83-8.2191-28.285,4.0754-2.3141,9.2923,1.28,9.9049,5.5966,2.2162,10.27,5.1328,20.371,7.7538,30.543,2.9432-12.047,5.8862-24.093,8.8294-36.14,3.3647,0.0233,8.5277-1.1477,10.004,2.9138,0.75409,3.216,1.1882,6.4909,2.2152,9.6464,1.9898,7.8588,3.9707,15.72,5.9594,23.579,3.073-12.047,6.1459-24.093,9.219-36.14,2.9316-1.4183,7.6098,0.01219,7.8449,3.6586-0.62632,2.9689-2.6283,5.454-3.0373,8.5146-3.4601,11.398-6.7327,22.851-10.132,34.267z"/>
  <path id="path5976" style="text-align:start;" fill="#159c41" d="m219.52,65.445c2.2785,9.8092-10.913,6.4813-13.934,1.412-7.4516,3.9061-16.894,8.3796-24.678,1.93-9.7475-6.547-4.9726-22.488,6.1542-24.269,7.5256-0.27607,24.488-1.4678,17.826-13.077-8.1196-7.3811-17.562,0.66208-23.332,5.7258-9.087-3.5573,3.3275-16.488,10.51-14.857,9.8732-2.519,23.481,2.6959,21.985,14.735-0.0486,8.4012-0.40112,16.817-0.008,25.17,0.39579,2.6824,3.0438,3.8961,5.4754,3.2304zm-12.94-10.301c-0.66961-2.2988,1.5242-8.8733-1.4666-7.706-7.6654,1.6149-25.756,2.1436-20.369,14.337,6.009,7.6917,20.753,2.7516,21.836-6.6309z"/>
  <path id="path5978" style="text-align:start;" fill="#159c41" d="m260.18,36.273c-2.492-0.8172-6.5166,1.6993-7.8133-1.4173-0.92398-2.8151-3.1056-5.0632-6.0136-5.7977-4.2648-1.4232-9.7783-0.34408-12.208,3.7137-1.5953,3.4439,0.81134,7.5077,4.1387,8.8201,4.711,1.9962,10.009,1.8142,14.764,3.706,3.9034,1.0109,7.0669,4.1221,8.2878,7.9452,1.7885,4.9786,0.20615,11.01-4.0654,14.225-5.9922,4.7368-14.299,5.3097-21.495,3.5023-2.6796-0.61027-5.4454-1.4914-7.2751-3.6806-2.0358-2.3845-4.1126-5.3758-3.6766-8.6704,0.66806-3.1804,5.6556-3.6573,7.2665-0.97737,2.3487,2.5679,3.772,6.3962,7.3878,7.4742,2.5479,0.32035,5.1828,0.21289,7.7176-0.0655,4.0484-0.95916,7.7384-5.2751,6.344-9.5546-1.2346-3.248-4.9157-4.4576-8.0748-4.8424-5.9438-1.1835-12.468-2.1852-16.972-6.6302-4.4101-4.4836-4.0421-12.456,0.52333-16.703,4.6702-4.7981,11.854-6.3636,18.309-5.2446,6.1639,0.79814,12.242,5.5423,12.861,12.01,0.0687,0.72726,0.0633,1.461-0.008,2.188z"/>
  <path id="path5980" style="text-align:start;" fill="#159c41" d="m319.82,5.1499c2.3619-0.48056,6.7815-1.7129,7.3918,1.6725-0.0785,7.5907-0.0123,15.188-0.0339,22.781,4.6676-7.7739,15.654-9.5762,23.4-5.6393,6.1829,2.8871,9.1218,9.6788,10.355,16.016,1.3462,7.5924,0.29703,15.715-3.2995,22.561-4.8781,8.2538-16.64,12.135-25.1,7.1058-2.2264-0.42463-4.4632-4.4799-5.5274-4.3352,0.905,3.4326-4.2211,6.8078-6.6507,3.8552-1.2442-2.257-0.29611-5.0781-0.54277-7.5758,0.0239-18.812,0-37.634,0.008-56.441zm20.299,23.761c-6.568-0.25555-11.405,5.9894-12.374,11.986-1.295,6.9433-0.87414,15.018,4.165,20.455,4.324,4.8176,12.72,4.7812,16.957-0.14333,4.9131-5.0449,5.366-12.69,4.4391-19.304-0.73367-4.1093-2.7776-7.9583-5.4437-11.125-2.091-1.8281-5.0628-2.3647-7.7438-1.8695z"/>
  <path id="path5982" style="text-align:start;" fill="#159c41" d="m377.69,23.327v46.441c-2.5494,1.2082-6.4892,0.57311-6.978-2.6909-1.1584-4.1953-0.11836-8.5586-0.37976-12.832v-30.918h7.3578zm0-18.178c1.9446,3.3876,0.3596,8.5053-3.4767,9.7344-3.0826,0.35646-4.1968-3.3108-4.4642-5.7415-0.61226-2.7538,1.9574-4.6251,4.4963-4.1584,1.1502,0.00231,2.2964,0.12221,3.4446,0.16558z"/>
  <path id="path5984" style="text-align:start;" fill="#159c41" d="m399.85,60.553c1.6386,4.3212-1.8628,10.764-6.9588,9.4759-4.509-2.2673-3.3159-11.41,2.718-9.5824,1.4091,0.10454,2.8294,0.29534,4.2408,0.10653z"/>
  <path id="path5986" style="text-align:start;" fill="#159c41" d="m413.75,23.327c2.7816-0.91665,6.6939-0.22087,7.3695,3.113,1.5148,6.4602-1.4839,13.088-0.007,19.548-0.18145,12.564,0.58538,25.178-0.67883,37.7-1.2544,3.9126-5.9087,5.3549-9.6418,5.2996-3.7797,0.64335-6.0026-3.6674-3.1082-6.1955,3.7357-0.83148,6.3435-4.3295,6.4833-8.0856,0.55211-6.3989-1.6883-12.793-0.45135-19.162,0.006-10.739,0.10931-21.478,0.0343-32.217zm7.3577-18.178v9.3054c-2.4977,0.87977-6.2801,0.8233-7.2419-2.2046-0.38576-2.2889-1.3975-7.2051,1.9678-7.282,1.7555-0.024072,3.5361,0.62284,5.2742,0.1811z"/>
  <path id="path5988" style="text-align:start;" fill="#159c41" d="m464.99,36.273c-9.4103,2.5268-15.028-15.613-24.92-5.1042-5.4069,12.895,12.681,11.729,19.817,14.981,13.746,7.2485,4.6414,26.542-9.1866,25.682-8.672,1.6082-25.26-3.9835-19.412-15.204,7.7222-0.5355,13.671,15.134,23.701,6.9562,10.714-10.256-8.1111-14.778-15.877-15.727-13.796-3.7489-9.4373-24.41,3.6347-25.762,9.4304-2.045,23.153,2.5008,22.242,14.179z"/>
  <path id="path5990" style="text-align:start;" fill="#159c41" d="m313.18,65.445c2.2785,9.8092-10.913,6.4813-13.934,1.412-7.4516,3.9061-16.894,8.3796-24.678,1.93-9.7475-6.547-4.9726-22.488,6.1542-24.269,7.5256-0.27607,24.488-1.4678,17.826-13.077-8.1196-7.3811-17.562,0.66208-23.332,5.7258-9.087-3.5573,3.3275-16.488,10.51-14.857,9.8732-2.519,23.481,2.6959,21.985,14.735-0.0486,8.4012-0.40112,16.817-0.008,25.17,0.39579,2.6824,3.0438,3.8961,5.4754,3.2304zm-12.94-10.301c-0.66961-2.2988,1.5242-8.8733-1.4666-7.706-7.6654,1.6149-25.756,2.1436-20.369,14.337,6.009,7.6917,20.753,2.7516,21.836-6.6309z"/>
  <path id="path6599" style="direction:ltr;enable-background:accumulate;baseline-shift:baseline;block-progression:tb;text-indent:0;color:#000000;text-transform:none;text-align:start;" d="m46.334,0.0011c-14.643,0-29.123,2.511-38.081,7.8378-0.1823,0.1064-0.3365,0.2606-0.4429,0.4431-5.2993,9.468-7.8101,24.242-7.8101,38.884,0,14.643,2.511,29.123,7.8379,38.081,0.10643,0.1825,0.26064,0.3367,0.44312,0.4432,9.468,5.2993,24.214,7.8101,38.857,7.8101s29.151-2.5111,38.109-7.8379c0.18248-0.1063,0.33669-0.2606,0.44313-0.4431,5.2993-9.468,7.8101-24.214,7.8101-38.857s-2.511-29.151-7.8379-38.109c-0.106-0.1822-0.26-0.3365-0.443-0.4429-9.468-5.2993-24.242-7.8101-38.884-7.8101z" fill-rule="nonzero" fill="#292929"/>
  <path id="path6605" stroke-linejoin="miter" d="m63.692,40.899c5.1355,0.49431,9.5537,5.6825,10.933,10.474,1.8105,5.8088,1.3784,12.884-3.4369,16.984-1.8541,1.643-5.1128,2.8619-7.495,1.6742-1.4401-0.67958-3.4218-1.4621-4.2824-2.8592-0.58789-0.95444-0.32627-2.3824-0.29872-3.5236,0.0021-0.84809,1.2719-2.777,2.0142-2.7583,8.7579,0.22088,1.8637,1.0713,0.22038,2.5998-0.71006,2.2136,1.3386,4.4293,3.5786,3.6671,3.4586-0.79092,6.9106-3.8856,6.6618-7.6752-0.5848-2.3994-1.9722-4.6354-3.5639-6.5152-4.5074-4.3932-11.993-3.0347-16.956,0.28631-2.3907,1.6039-4.4747,3.1352-4.981,6.0393-0.78373,1.7789-0.02958,10.738-2.4296,9.2229-0.99076-2.1203-3.1362-9.4839-2.7378-11.729,1.4914-6.0189,6.9967-9.9121,12.341-12.349,3.4099-1.582,6.6499-3.546,10.433-3.5385z" stroke="#1be75c" stroke-linecap="butt" stroke-width="0.2205085px" fill="#1be75c"/>
  <path id="path6607" stroke-linejoin="miter" d="m62.749,61.374c2.338-1.8942,0.16705-3.4248-2.2796-2.8639-2.535,0.000181-5.0185,1.5899-5.0252,4.489,0.38571,2.6122-0.58046,5.3777,1.0137,7.6865,4.0252,6.4026,13.828,8.1004,19.8,3.4837,3.4445-1.4022,5.0312-5.1589,6.3156-8.3927,0.61522-1.7899,0.56059-4.271,0.55159-5.7729,2.4129,7.5292-0.50016,16.77-8.033,19.644-7.915,3.324-17.462,2.732-24.707-1.9653-2.5895-1.7314-4.9747-3.9807-6.3916-6.7776-1.996-6.9407,1.799-14.479,7.5631-18.394,4.0581-2.8913,9.7556-3.643,14.164-1.0858,3.0327,0.51156,6.4959,3.2793,6.4462,6.3851,0.04601,3.5934-2.8918,8.5546-6.3535,10.08-2.3669,0.88864-4.4108-2.016-5.0571-4.1362-0.02741-1.5148,1.3319-5.3383,1.9926-2.3796z" stroke="#13d65d" stroke-linecap="butt" stroke-width="0.2205085px" fill="#13d65d"/>
  <path id="path6609" fill="#159c41" d="m57.993,42.034c4.0047-1.7756,9.1607-0.35179,12.309,2.6621,4.9856,4.6025,6.3876,12.245,4.1471,18.787-1.3347,3.8973-4.9707,6.267-8.768,6.1298-2.6019-0.02466-6.0561-0.93348-6.7205-3.8393-0.20995-2.0701,1.115-4.9334,3.5845-4.2994,2.9175-0.04565,1.0521-3.2596-0.60459-3.1953-2.1299-0.66046-5.5556,0.48089-6.2806,2.8835-0.69817,2.615-1.3212,5.4918-0.09827,8.0761,2.5229,5.547,9.2127,8.1675,15.021,7.3654,3.6079-0.48864,6.6977-2.7696,9.1387-5.3549,4.197-4.791,4.412-11.87,2.412-17.658-1.402-4.246-3.951-8.089-7.283-11.059-3.916-4.674-12.454-6.037-16.465-1.014l-0.19908,0.25258-0.1926,0.26221z"/>
 </g>
</svg>
